<?xml version="1.0" encoding="iso-8859-1"?>
<!-- Generator: Adobe Illustrator 19.0.0, SVG Export Plug-In . SVG Version: 6.00 Build 0)  -->
<svg version="1.1" id="Layer_1" xmlns="http://www.w3.org/2000/svg" xmlns:xlink="http://www.w3.org/1999/xlink" x="0px" y="0px"
	 viewBox="0 0 330 330" style="enable-background:new 0 0 330 330;" xml:space="preserve">
<g id="XMLID_28_">
	<path id="XMLID_29_" d="M120,165c0-19.555,12.541-36.227,30-42.42V80.006v-15v-15L14.999,50.011C6.716,50.011,0,56.727,0,65.011
		V110h15h15h5c30.327,0,55,24.673,55,55s-24.673,55-55,55h-5H15H0v45c0,8.284,6.716,15,15,15h135v-15v-15v-42.58
		C132.541,201.227,120,184.555,120,165z"/>
	<path id="XMLID_30_" d="M165,150c-8.272,0-15,6.729-15,15s6.728,15,15,15c8.271,0,15-6.729,15-15S173.271,150,165,150z"/>
	<path id="XMLID_31_" d="M314.999,50L180,50.005v15v15v42.575c17.459,6.192,30,22.865,30,42.42s-12.541,36.227-30,42.42V250v15v15
		h135c8.284,0,15-6.716,15-15v-45h-15h-15h-5c-30.327,0-55-24.673-55-55s24.673-55,55-55h5h15h15V65
		c0-3.979-1.58-7.794-4.394-10.606C322.793,51.58,318.977,50,314.999,50z"/>
	<path id="XMLID_71_" d="M300,140h-5c-13.785,0-25,11.215-25,25s11.215,25,25,25h5h15h15v-50h-15H300z"/>
	<path id="XMLID_85_" d="M30,190h5c13.785,0,25-11.215,25-25s-11.215-25-25-25h-5H15H0v50h15H30z"/>
</g>
<g>
</g>
<g>
</g>
<g>
</g>
<g>
</g>
<g>
</g>
<g>
</g>
<g>
</g>
<g>
</g>
<g>
</g>
<g>
</g>
<g>
</g>
<g>
</g>
<g>
</g>
<g>
</g>
<g>
</g>
</svg>
