<?xml version="1.0" encoding="iso-8859-1"?>
<!-- Generator: Adobe Illustrator 18.0.0, SVG Export Plug-In . SVG Version: 6.00 Build 0)  -->
<!DOCTYPE svg PUBLIC "-//W3C//DTD SVG 1.1//EN" "http://www.w3.org/Graphics/SVG/1.1/DTD/svg11.dtd">
<svg version="1.1" id="Capa_1" xmlns="http://www.w3.org/2000/svg" xmlns:xlink="http://www.w3.org/1999/xlink" x="0px" y="0px"
	 viewBox="0 0 336.539 336.539" style="enable-background:new 0 0 336.539 336.539;" xml:space="preserve">
<g>
	<path d="M223.297,0H113.242C61.758,0,19.874,41.885,19.874,93.368v111.777c0,2.521,1.458,4.815,3.741,5.885
		c0,0,95.129,44.564,95.403,44.65l14.795,75.606c0.597,3.051,3.271,5.252,6.379,5.252h56.156c3.108,0,5.782-2.201,6.379-5.252
		l14.795-75.606c0.274-0.086,95.403-44.65,95.403-44.65c2.283-1.07,3.741-3.364,3.741-5.885V93.368
		C316.665,41.885,274.78,0,223.297,0z M127.167,229.631h82.206l-2.614,13.357H129.78L127.167,229.631z M137.529,282.586h61.48
		l-2.739,13.999h-56.002L137.529,282.586z M201.553,269.586h-66.568l-2.661-13.599h71.89L201.553,269.586z M145.543,323.539
		l-2.731-13.954h50.914l-2.731,13.954H145.543z M303.665,201.013l-83.066,38.937l3.047-15.571c0.373-1.906-0.126-3.88-1.361-5.38
		s-3.076-2.369-5.018-2.369h-97.996c-1.943,0-3.784,0.869-5.018,2.369c-1.235,1.5-1.734,3.473-1.361,5.38l3.047,15.571
		l-83.066-38.937V93.368C32.874,49.053,68.927,13,113.242,13h110.054c44.315,0,80.369,36.053,80.369,80.368V201.013z"/>
	<path d="M224.439,24.983H112.1c-37.757,0-68.476,30.718-68.476,68.476v100.407c0,3.59,2.91,6.5,6.5,6.5s6.5-2.91,6.5-6.5V93.458
		c0-30.589,24.886-55.476,55.476-55.476h112.338c30.589,0,55.476,24.886,55.476,55.476v100.407c0,3.59,2.91,6.5,6.5,6.5
		s6.5-2.91,6.5-6.5V93.458C292.914,55.701,262.196,24.983,224.439,24.983z"/>
	<path d="M230.141,104.994H106.398c-3.59,0-6.5,2.91-6.5,6.5v88.496c0,3.59,2.91,6.5,6.5,6.5h123.744c3.59,0,6.5-2.91,6.5-6.5
		v-88.496C236.641,107.904,233.731,104.994,230.141,104.994z M223.641,193.489H112.898v-75.496h110.744V193.489z"/>
</g>
<g>
</g>
<g>
</g>
<g>
</g>
<g>
</g>
<g>
</g>
<g>
</g>
<g>
</g>
<g>
</g>
<g>
</g>
<g>
</g>
<g>
</g>
<g>
</g>
<g>
</g>
<g>
</g>
<g>
</g>
</svg>
