<?xml version="1.0" encoding="iso-8859-1"?>
<!-- Generator: Adobe Illustrator 19.0.0, SVG Export Plug-In . SVG Version: 6.00 Build 0)  -->
<svg version="1.1" id="Layer_1" xmlns="http://www.w3.org/2000/svg" xmlns:xlink="http://www.w3.org/1999/xlink" x="0px" y="0px"
	 viewBox="0 0 473.654 473.654" style="enable-background:new 0 0 473.654 473.654;" xml:space="preserve">
<circle style="fill:#C6B298;" cx="236.827" cy="236.827" r="236.827"/>
<path style="fill:#EA6A25;" d="M360.671,130.945c-29.89-34.939-74.268-57.107-123.855-57.107
	c-90.008,0-162.982,72.97-162.982,162.982c0,51.023,23.455,96.545,60.155,126.431c28.051,22.841,63.831,36.551,102.827,36.551
	c90.015,0,162.982-72.967,162.982-162.982C399.798,196.391,385.045,159.429,360.671,130.945z"/>
<path style="fill:#F37C2A;" d="M311.944,313.197c51.172-51.176,67.918-122.609,48.727-182.252
	c-29.89-34.939-74.268-57.107-123.855-57.107c-90.008,0-162.982,72.97-162.982,162.982c0,51.023,23.455,96.545,60.155,126.431
	C192.738,380.3,261.995,363.15,311.944,313.197z"/>
<path style="fill:#3A3A39;" d="M399.241,249.658c0.194-2.453,0.337-4.918,0.419-7.401c-9.424-6.918-24.502-13.347-42.156-19.154
	c1.885-16.286,1.675-30.967,0.052-44.086l28.78-7.191c-0.819-1.892-1.653-3.777-2.543-5.632l-27.093,6.772
	c-3.979-24.565-12.801-43.267-21.252-56.299c-5.568-8.594-11.361-15.444-16.488-20.706c-6.01-3.511-12.243-6.69-18.713-9.427
	l-0.591,0.954c0.161,0.101,16.469,10.452,30.866,32.755c8.044,12.483,16.454,30.421,20.227,54.033
	c-40.847,5.796-112.539-58.554-113.234-59.179c-20.751-19.416-42.96-27.961-56.322-31.622c-3.328,1.208-6.593,2.547-9.813,3.96
	c9.106,1.728,36.936,8.665,62.021,32.134c2.924,2.644,68.12,61.187,112.068,61.187c2.098,0,4.128-0.18,6.118-0.456
	c1.477,12.213,1.675,25.837,0.022,40.915c-57.141-17.808-136.266-29.273-141.117-29.965c-83.542-9.906-119.483,5.202-133.937,15.867
	c-0.565,3.066-1.04,6.159-1.429,9.282c7.363-7.932,37.485-30.642,134.572-19.128c1.182,0.168,83.875,12.146,141.206,29.988
	c0,0.004,0,0.004,0,0.004l-0.026,0.266c-0.011,0.251-1.028,18.2-7.76,42.642c-19.633-8.721-42.897-1.776-45.642-0.894
	c-8.994,1.761-90.21,32.059-99.547,35.548l-0.172,0.071c-40.107,17.834-89.69,18.126-99.278,18.002
	c1.29,2.064,2.618,4.102,3.994,6.099c15.736-0.056,60.031-1.81,97.666-18.503c36.91-13.799,93.553-34.542,98.515-35.26l0.527-0.116
	c0.273-0.09,23.784-7.651,42.231,0.957c-2.461,8.167-5.523,16.88-9.409,25.837c-14.685,33.884-43.895,77.342-100.288,97.67
	c1.694,0.052,3.384,0.127,5.09,0.127c3.9,0,7.756-0.187,11.589-0.453c48.921-22.785,75.337-62.974,89.193-94.933
	c3.777-8.713,6.787-17.157,9.244-25.096c0.987,0.703,1.967,1.41,2.894,2.24c1.462,1.649,19.921,23.331,18.503,51.64
	c2.098-2.857,4.087-5.796,5.998-8.792c-2.139-27.119-19.274-46.139-20.111-47.044l-0.206-0.206
	c-1.679-1.515-3.463-2.778-5.277-3.938c6.26-22.179,7.876-39.209,8.223-43.962C375.835,235.414,391.391,242.321,399.241,249.658z"/>
<g>
</g>
<g>
</g>
<g>
</g>
<g>
</g>
<g>
</g>
<g>
</g>
<g>
</g>
<g>
</g>
<g>
</g>
<g>
</g>
<g>
</g>
<g>
</g>
<g>
</g>
<g>
</g>
<g>
</g>
</svg>
